<?xml version="1.0" encoding="UTF-8" standalone="no"?>
<!-- Created with Inkscape (http://www.inkscape.org/) -->

<svg
   width="100mm"
   height="100mm"
   viewBox="0 0 100 100"
   version="1.1"
   id="svg5"
   xml:space="preserve"
   inkscape:version="1.2.2 (732a01da63, 2022-12-09)"
   sodipodi:docname="favicon.svg"
   xmlns:inkscape="http://www.inkscape.org/namespaces/inkscape"
   xmlns:sodipodi="http://sodipodi.sourceforge.net/DTD/sodipodi-0.dtd"
   xmlns="http://www.w3.org/2000/svg"
   xmlns:svg="http://www.w3.org/2000/svg"><sodipodi:namedview
     id="namedview7"
     pagecolor="#7e7e7e"
     bordercolor="#000000"
     borderopacity="0.25"
     inkscape:showpageshadow="2"
     inkscape:pageopacity="0"
     inkscape:pagecheckerboard="true"
     inkscape:deskcolor="#d1d1d1"
     inkscape:document-units="mm"
     showgrid="false"
     inkscape:zoom="1.4142136"
     inkscape:cx="285.31759"
     inkscape:cy="214.96046"
     inkscape:window-width="1920"
     inkscape:window-height="1017"
     inkscape:window-x="-8"
     inkscape:window-y="-8"
     inkscape:window-maximized="1"
     inkscape:current-layer="layer3" /><defs
     id="defs2" /><g
     inkscape:groupmode="layer"
     id="layer3"
     inkscape:label="Helmet"
     style="fill:#ffffff"><path
       id="path4908"
       style="fill:#ffffff;stroke-width:0.16201;fill-opacity:1"
       d="m 59.928642,3.2106567 c -0.02184,7.363e-4 -0.03307,0.00611 -0.03307,0.016536 0,0.042909 0.392642,0.6086971 0.872298,1.2572876 1.627897,2.2012416 3.309725,4.8868276 4.281909,6.8373097 1.826252,3.664004 3.488312,8.781135 4.315499,13.284976 0.441689,2.404856 0.978752,6.535516 0.864547,6.649723 -0.04211,0.0421 -1.600896,0.257499 -3.463871,0.478524 -7.739448,0.918214 -10.724051,1.46337 -18.678447,3.411679 -2.707545,0.66317 -4.953718,1.20561 -4.991427,1.20561 -0.03775,0 -0.02941,-0.06302 0.01809,-0.140042 C 43.354306,35.823714 40.472795,26.018035 38.567672,20.740336 35.661078,12.688338 33.689502,8.4226159 31.85542,6.2187419 L 31.047717,5.2482585 29.619381,5.9655273 C 23.118349,9.2305418 16.909328,15.802859 13.232784,23.310722 10.945304,27.981981 9.709992,32.240459 8.3994873,39.972754 l -0.6082316,3.588928 0.4397664,2.997233 c 1.4911874,10.160167 3.9328439,15.676693 9.4480019,21.347018 3.260701,3.352432 6.659054,5.831305 10.936284,7.97729 5.345603,2.682013 10.729209,4.138512 18.238163,4.933549 3.292051,0.348559 10.700984,0.227215 13.608988,-0.222725 4.848586,-0.750196 9.025476,-1.747965 11.886097,-2.83962 1.955743,-0.746341 7.020624,-3.13958 9.175667,-4.335653 7.047871,-3.911638 9.304526,-6.736157 9.978202,-12.488126 0.322806,-2.756144 0.09765,-8.265159 -0.504362,-12.346533 C 89.61656,39.218562 88.258241,33.83984 85.862976,28.252022 81.791444,18.753675 72.852839,9.0141352 64.529911,5.0069295 62.926909,4.2351327 60.256212,3.1996127 59.928642,3.2106567 Z M 82.656453,24.201624 c 2.410397,5.764309 4.97001,10.764325 6.488493,16.683219 1.356387,5.391094 1.849658,9.349037 1.971973,15.822807 l 0.09198,4.883423 -0.761194,0.989603 c -0.418727,0.544163 -0.816112,0.989604 -0.88315,0.989604 -0.067,0 -0.120041,-2.570307 -0.117822,-5.711279 0.0062,-8.337314 -0.605545,-13.862465 -2.351795,-19.289262 -0.789488,-2.657801 -1.94173,-4.874524 -3.027205,-7.008875 l -1.166854,-2.339909 -0.882633,0.10387 c -0.790185,0.09287 -0.933974,0.06067 -1.371493,-0.307475 l -0.488859,-0.411344 0.56224,-0.428915 c 0.40762,-0.321321 0.527391,-0.319792 0.881083,-0.652156 0.09012,-0.05567 0.244648,-0.251631 0.343131,-0.435632 0.100079,-0.187105 0.108738,-0.291249 0.01964,-0.236162 -0.255622,-0.732573 -0.502152,-0.981671 -0.772046,-1.381311 -0.01162,-0.602479 0.135986,-0.490529 0.762744,-0.891935 0.216939,-0.18607 0.441581,-0.378271 0.701767,-0.378271 z m -7.168554,1.563728 c 0.580256,0.165936 7.252124,5.690026 7.244519,6.018238 -0.0093,0.401131 -0.587228,3.110587 -0.684196,3.207556 -0.04532,0.04527 -0.5426,-0.215564 -1.105359,-0.579293 -0.562758,-0.363728 -1.108884,-0.628367 -1.213879,-0.588078 -0.104985,0.04029 -0.837913,0.527591 -1.628325,1.082621 -2.56598,1.801828 -2.475992,1.71778 -2.350244,2.187981 0.111488,0.416832 0.133361,0.422482 1.72806,0.447518 1.582213,0.02484 1.642497,0.04014 2.951758,0.745174 l 1.336869,0.719852 v 2.813782 c 0,1.700333 -0.06004,2.776204 -0.151412,2.719731 -0.14566,-0.09003 -3.621458,-0.583823 -3.677295,-0.522449 -0.01504,0.01656 0.04468,0.444859 0.132809,0.95188 0.186054,1.070488 -0.18393,0.916005 3.594612,1.501717 1.414702,0.219293 2.617675,0.44405 2.673222,0.499711 0.05559,0.05566 0.100766,1.097442 0.100252,2.315104 -9.75e-4,2.106507 -0.02318,2.255629 -0.451652,3.070614 -0.280274,0.533112 -0.519831,0.813512 -0.634586,0.74259 -0.208104,-0.128616 -2.601735,-0.538154 -3.175,-0.543119 -0.205749,-0.0018 -0.341256,0.05151 -0.300757,0.118339 0.04045,0.06683 0.269167,2.345021 0.507979,5.06274 0.238802,2.717719 0.483927,5.107342 0.54467,5.309753 0.104062,0.346791 0.243598,0.269239 2.41794,-1.339453 l 2.307353,-1.707389 -0.0021,-1.820044 c -0.0021,-2.692954 -0.293252,-7.854078 -0.573092,-10.163204 -0.29608,-2.443071 -0.984182,-5.924212 -1.773535,-8.976196 -0.320473,-1.23907 -0.524491,-2.306479 -0.453719,-2.371948 0.07083,-0.06547 0.684444,-0.373565 1.363741,-0.684196 l 1.235067,-0.564307 0.673344,2.612244 c 1.864552,7.235106 2.202966,9.522258 2.202966,14.893147 0,3.864523 0.01973,4.155982 0.260449,3.85868 0.24546,-0.303197 0.265965,-0.246061 0.363285,1.004073 0.184676,2.372169 0.142121,2.801493 -0.380855,3.837492 -0.449684,0.890811 -0.485957,1.093251 -0.488342,2.708878 l -0.0021,1.746147 -1.687752,0.931726 c -0.928242,0.512357 -1.725341,0.931209 -1.770952,0.931209 -0.04563,0 -0.105141,-0.32947 -0.132291,-0.732255 l -0.04909,-0.732255 -1.579749,1.151351 -1.579748,1.150834 v 1.080038 1.07952 l -1.421102,0.694015 c -1.616406,0.789007 -4.897376,1.596235 -4.897376,1.205094 0,-0.06939 0.15079,-1.144608 0.334864,-2.389518 0.488772,-3.305523 0.598101,-8.641419 0.243912,-11.900566 -0.650477,-5.985447 -2.364543,-13.083575 -4.343404,-17.985982 -0.839549,-2.079876 -2.596843,-5.71818 -3.300057,-6.832141 -0.288094,-0.456359 -0.339607,-0.646813 -0.189135,-0.700216 3.166676,-1.123882 6.561839,-2.657444 7.25382,-3.276286 0.04439,-0.0397 -0.122168,-0.219958 -0.370003,-0.400492 -0.297408,-0.216646 -0.401092,-0.390988 -0.304891,-0.513147 0.08017,-0.101801 0.34701,-0.804781 0.592729,-1.562178 0.24573,-0.757399 0.502556,-1.438527 0.571024,-1.513603 0.0056,-0.0062 0.01797,-0.0064 0.03669,-0.001 z m -10.846883,7.542692 c 0.129948,7.46e-4 0.209873,0.0068 0.222725,0.01964 0.07011,0.07011 0.639178,4.18196 1.020093,7.369576 0.0093,0.07548 0.593026,-0.104963 1.843815,-0.569991 1.304832,-0.485115 1.338502,-0.467226 1.891357,1.00459 0.200823,0.534633 0.677766,1.800574 1.059884,2.813265 l 0.694531,1.841232 -1.767851,0.83199 c -1.671248,0.786255 -1.768717,0.858392 -1.769401,1.317749 -0.001,0.72099 0.956514,9.031994 1.051616,9.127092 0.04491,0.04491 0.458935,-0.0052 0.91984,-0.111622 0.556983,-0.128569 0.871809,-0.138615 0.938961,-0.02997 0.206745,0.334537 0.855357,4.889429 0.714685,5.018815 -0.07923,0.07286 -0.982389,0.366923 -2.007112,0.653707 -3.530293,0.988011 -5.599283,1.753825 -8.933305,3.306775 -1.83906,0.856611 -3.425256,1.557528 -3.525367,1.557528 -0.100079,0 -0.368405,-0.41937 -0.595829,-0.931726 -0.227425,-0.512358 -0.560072,-1.365185 -0.73949,-1.895492 -0.179427,-0.530305 -0.429884,-1.16479 -0.556555,-1.409733 -0.50605,-0.978593 -0.355195,-1.152844 1.593185,-1.838131 0.423819,-0.149067 0.742297,-0.319546 0.70745,-0.378788 -0.03485,-0.05924 -0.479875,-1.085172 -0.98857,-2.279964 -0.928688,-2.181275 -1.816349,-4.165849 -2.313554,-5.172294 -0.278854,-0.564436 -0.429431,-0.58857 -1.739945,-0.274402 -0.960682,0.230303 -0.880856,0.331151 -2.176095,-2.749703 -0.674308,-1.6039 -1.285348,-3.007124 -1.35754,-3.118673 -0.0868,-0.134092 -0.0042,-0.252308 0.242879,-0.348299 1.595893,-0.619081 2.175616,-0.867596 2.297018,-0.985986 0.07841,-0.07651 -0.514189,-1.866217 -1.344104,-4.05815 -0.816546,-2.156611 -1.448674,-3.957193 -1.404566,-4.001307 0.218526,-0.218523 5.494362,-1.837491 5.602759,-1.719274 0.111436,0.121544 1.769403,4.228798 2.622062,6.495727 0.175964,0.467805 0.411065,0.850594 0.522449,0.850594 0.111384,0 0.890028,-0.279715 1.730127,-0.621667 l 1.527555,-0.621668 -0.03617,-0.876949 c -0.01981,-0.482274 -0.119025,-2.430673 -0.220142,-4.329451 -0.101117,-1.898778 -0.151063,-3.484893 -0.111104,-3.52485 0.10433,-0.104335 3.474073,-0.365406 4.383712,-0.360185 z m -20.328475,4.182174 c 0.05403,-0.0023 0.08929,0.0034 0.103869,0.0186 0.0307,0.03213 0.543922,1.407174 1.139982,3.055627 1.154868,3.193892 4.581718,11.898305 6.633704,16.849101 l 1.242301,2.997233 -1.51722,1.478979 c -1.659819,1.617614 -2.160723,1.946149 -3.09025,2.026233 l -0.617017,0.05323 -2.039669,-4.878772 -2.039668,-4.878255 -0.946196,0.319877 -0.945679,0.31936 v 1.660364 c 0,0.913261 -0.04796,2.765794 -0.106453,4.116545 l -0.106453,2.455664 h 0.502294 0.502295 l 0.738457,2.25826 c 0.405887,1.241943 0.737939,2.440588 0.737939,2.66392 0,0.22333 -0.164354,0.587844 -0.364836,0.80977 -0.368748,0.408174 -1.614751,0.908566 -2.273763,0.913122 -0.197369,0.0012 -0.439066,0.05597 -0.537435,0.12144 -0.09832,0.06546 -0.230055,0.875645 -0.292488,1.800407 l -0.113688,1.681551 1.349271,-0.0708 c 1.032491,-0.05419 1.511722,-0.162103 2.040703,-0.459403 0.656398,-0.368915 0.713355,-0.375292 1.130163,-0.124541 0.781347,0.470074 1.03842,0.988274 1.221114,2.462899 0.195347,1.576702 0.158253,1.662948 -0.803051,1.883089 -1.309728,0.29993 -9.435168,0.691464 -11.015349,0.530717 -0.592637,-0.06029 -0.699377,-0.138239 -0.949296,-0.692464 -0.215249,-0.477355 -0.256714,-0.847578 -0.176733,-1.57148 0.05756,-0.520796 0.02987,-1.1973 -0.06098,-1.503268 -0.09085,-0.305966 -0.144954,-0.575928 -0.120406,-0.60048 0.02458,-0.02455 0.65229,-0.09569 1.394746,-0.157613 l 1.349789,-0.112138 -0.08578,-0.906921 c -0.04719,-0.49862 -0.164013,-1.106816 -0.259416,-1.351856 -0.152069,-0.390608 -0.259597,-0.44545 -0.873848,-0.44545 H 34.36276 l -0.639237,-1.311548 c -0.351576,-0.721101 -0.686527,-1.340216 -0.744657,-1.376144 -0.05808,-0.03593 -0.678535,-0.141459 -1.378211,-0.234611 -0.699676,-0.09315 -1.636517,-0.291251 -2.082043,-0.440283 -0.445526,-0.149033 -0.823738,-0.275182 -0.840259,-0.280086 -0.01649,-0.0049 -0.225058,-2.850724 -0.463538,-6.324162 -0.427158,-6.221465 -0.455252,-9.014998 -0.174666,-17.287834 0.02333,-0.686803 -0.1843,-0.604828 2.586922,-1.020609 0.965971,-0.144929 1.783457,-0.236053 1.816943,-0.202572 0.0335,0.03348 0.13429,0.705459 0.223759,1.492932 0.0895,0.787473 0.190094,1.459266 0.223759,1.492933 0.05683,0.0568 6.416347,-2.193441 6.586678,-2.330608 0.04221,-0.03401 -0.126828,-0.622974 -0.37517,-1.308447 -0.248354,-0.685474 -0.46499,-1.307763 -0.481625,-1.382861 -0.06368,-0.287408 4.88061,-2.174887 5.691126,-2.208651 z m -3.777031,8.418608 c -0.08909,-0.002 -1.966475,0.627932 -4.171838,1.399914 l -4.009575,1.403532 v 0.681612 c 0,0.37492 -0.04815,1.142094 -0.10697,1.704806 -0.08805,0.842891 -0.06677,1.008459 0.12144,0.938444 0.125645,-0.04674 2.287648,-0.769218 4.804875,-1.60507 2.517237,-0.83585 4.576981,-1.591622 4.576981,-1.679484 0,-0.350942 -1.063591,-2.84049 -1.214913,-2.843754 z m -33.8718341,0.40721 -0.7467244,2.025199 c -1.4235896,3.861768 -1.9151286,6.253121 -1.9151286,9.318811 0,4.606143 1.3398499,8.169016 4.8849732,12.989388 5.2558219,7.146426 15.5433039,15.727548 25.1679729,20.994068 3.754211,2.054267 8.211351,3.83089 12.509831,4.986259 1.761486,0.473465 6.015181,1.41736 6.485909,1.439188 0.123632,0.0057 0.202571,-0.202525 0.202571,-0.534334 0,-2.016323 -0.576831,-7.03279 -1.403532,-12.205456 l -0.419096,-2.623613 -0.83044,-0.08475 C 50.143431,82.574222 48.82213,82.457833 47.663757,82.361898 37.793027,81.544417 30.110818,79.069647 23.281266,74.507597 20.68522,72.773474 19.044862,71.445477 17.067692,69.47793 11.328656,63.766803 8.4517615,57.683824 6.937561,48.057532 Z m 55.6989261,2.935738 c -0.229659,0.01911 -0.685654,0.14812 -1.189075,0.343132 -0.978261,0.378943 -1.187259,0.521041 -1.144116,0.77928 0.05538,0.331768 2.09645,8.272934 2.213818,8.613428 0.05217,0.151381 0.247823,0.142408 0.84491,-0.03876 0.427221,-0.129627 0.799967,-0.236229 0.828373,-0.237195 0.08473,-0.0029 -0.136837,-2.542393 -0.395841,-4.538225 -0.277226,-2.136358 -0.804744,-4.697019 -1.010275,-4.902543 -0.0196,-0.0196 -0.07124,-0.02549 -0.147794,-0.01912 z m 30.870984,7.163904 c -0.0822,0.02296 -0.122498,0.636027 -0.124541,1.88929 -0.01037,6.202175 -1.734269,10.087961 -5.888012,13.269475 -1.466525,1.123262 -4.789718,3.111186 -7.201628,4.308264 -2.058676,1.021762 -1.999435,0.906609 -1.560111,3.044775 0.467667,2.276122 1.789624,6.05009 3.217891,9.187036 0.669683,1.470861 1.555758,2.997233 1.739946,2.997233 0.06803,0 0.617875,-0.426152 1.22163,-0.947229 3.683048,-3.178721 7.008784,-7.502153 9.054745,-11.770341 1.81671,-3.789923 2.372705,-6.279719 2.386934,-10.692887 0.0093,-2.943236 -0.01231,-3.160193 -0.490409,-4.950086 -0.453678,-1.698353 -1.92838,-5.711495 -2.318722,-6.309692 -0.01348,-0.02066 -0.02598,-0.02912 -0.03772,-0.02584 z m -56.787749,0.250631 c -0.13455,0.0099 -0.407437,0.0748 -0.702799,0.170532 -0.393806,0.12763 -1.247571,0.316622 -1.897042,0.420129 l -1.180806,0.188102 0.09095,0.915707 c 0.09323,0.94061 0.569991,7.480114 0.569991,7.819161 0,0.184748 1.280836,0.11454 2.22312,-0.121957 0.36093,-0.09059 0.370009,-0.135601 0.272335,-1.331184 -0.108024,-1.322393 0.110329,-4.014283 0.525033,-6.471957 0.139956,-0.829466 0.222498,-1.540179 0.183451,-1.579232 -0.0098,-0.0098 -0.03938,-0.0126 -0.08423,-0.0093 z m 31.737598,6.903971 c 0.09925,0 5.683296,6.093644 6.274036,6.84661 0.20158,0.256943 0.06236,0.450266 -1.397331,1.944068 -0.891497,0.912338 -1.652427,1.763334 -1.69137,1.890841 -0.04211,0.13787 -1.334184,-1.328917 -3.187919,-3.618901 -2.686927,-3.31924 -3.089563,-3.887897 -2.916618,-4.120162 0.353816,-0.475185 2.801627,-2.942456 2.919202,-2.942456 z m -8.323523,3.363102 c 0.04909,0.0042 0.09845,0.01917 0.153996,0.03721 0.246891,0.08017 1.466074,0.298298 2.709395,0.484725 1.243322,0.186427 2.285656,0.364326 2.316655,0.395325 0.07094,0.07098 -6.168051,10.297152 -6.27817,10.290328 -0.0446,-0.0028 -1.090071,-0.54877 -2.322856,-1.212846 -1.232784,-0.664076 -2.344581,-1.207162 -2.47065,-1.207162 -0.12608,0 -0.228927,-0.03743 -0.228927,-0.0832 0,-0.04577 1.310442,-2.047662 2.912484,-4.448307 2.522906,-3.780531 2.86446,-4.285479 3.208073,-4.256071 z" /><path
       style="fill:#de3163;fill-opacity:1;stroke-width:0.16201"
       d="m 54.549267,99.853021 c -3.03614,-0.31002 -8.668704,-1.64613 -12.6368,-2.99758 -7.094672,-2.41631 -14.17109,-6.50368 -21.702338,-12.53537 C 11.284235,77.171434 5.475957,70.210343 3.528757,64.32785 2.667417,61.725722 2.503224,60.660963 2.500051,57.656734 2.497951,55.309489 2.559481,54.602836 2.919017,52.87397 3.382952,50.643151 4.24146,48.017852 5.463636,45.092608 6.1445,43.462975 6.330483,42.767927 6.747116,40.296131 7.987929,32.934733 9.250261,28.192894 11.11159,23.901385 13.505841,18.38117 17.910866,12.490262 22.436608,8.7562837 c 6.051841,-4.993096 8.581464,-7.00363 19.905704,-8.37254504 2.713397,-0.328003 8.811378,-0.570873 11.409107,-0.189127 4.487038,0.659388 7.26378,1.51799404 10.356453,2.81624804 4.642572,1.948879 10.029945,5.990172 14.066177,10.5516293 8.45638,9.5568 11.89713,17.881859 14.35911,34.742522 0.49097,3.362391 0.64387,4.07093 1.05372,4.88283 0.75214,1.489986 2.34887,5.310128 2.81591,6.737037 1.46146,4.464962 1.68924,8.601741 0.73579,13.362575 -1.34469,6.714388 -6.40638,14.346188 -12.77687,19.264378 -4.46053,3.44365 -9.45372,5.40621 -16.736058,6.57805 -1.42888,0.22994 -10.362407,0.911709 -11.375276,0.86812 -0.267322,-0.0115 -1.032813,-0.0768 -1.701108,-0.14498 z m -1.29608,-2.31824 c 0,-2.01632 -0.576905,-7.03301 -1.403606,-12.20569 l -0.419308,-2.62355 -0.830154,-0.0847 c -0.456582,-0.0466 -1.777915,-0.16318 -2.936289,-0.25912 -9.87074,-0.81748 -17.552989,-3.2921 -24.382548,-7.854159 C 20.685233,72.773447 19.044723,71.445574 17.067551,69.478025 11.328509,63.766893 8.451791,57.683904 6.937589,48.057602 L 6.66364,46.316013 5.917096,48.341141 c -1.423591,3.861772 -1.915039,6.253222 -1.915039,9.318915 0,4.606147 1.339835,8.168769 4.884962,12.989146 5.255827,7.146433 15.543272,15.727979 25.167951,20.994509 3.754215,2.05427 8.210908,3.83061 12.509392,4.98598 1.761488,0.47347 6.015584,1.41738 6.486312,1.43921 0.123632,0.006 0.202513,-0.20231 0.202513,-0.53412 z m 31.385332,-7.37034 c 3.68305,-3.17873 7.00918,-7.5022 9.05514,-11.77039 1.81671,-3.789931 2.37239,-6.279509 2.38662,-10.692681 0.009,-2.943239 -0.012,-3.160266 -0.49014,-4.95016 -0.45367,-1.698355 -1.92854,-5.711356 -2.31888,-6.309553 -0.10785,-0.165265 -0.15968,0.430816 -0.16202,1.863118 -0.0104,6.202181 -1.73448,10.088193 -5.88822,13.26971 -1.46653,1.123264 -4.78955,3.111324 -7.20147,4.308403 -2.05867,1.021763 -1.99953,0.906355 -1.5602,3.044523 0.46766,2.27612 1.78959,6.0503 3.21786,9.18725 0.66968,1.47086 1.55577,2.99719 1.73995,2.99719 0.068,0 0.61761,-0.42634 1.22136,-0.94741 z m -24.175874,-9.57035 c 4.848591,-0.75019 9.025133,-1.74803 11.885756,-2.83969 1.955745,-0.746342 7.020528,-3.13953 9.175578,-4.335604 7.04787,-3.911642 9.30474,-6.736123 9.97842,-12.488098 0.3228,-2.756147 0.0978,-8.265161 -0.50422,-12.346539 -1.3815,-9.365562 -2.74005,-14.744465 -5.13531,-20.332288 C 81.791329,18.753515 72.853031,9.0139427 64.530095,5.0067327 c -1.709871,-0.82325 -4.634493,-1.946098 -4.634493,-1.779323 0,0.04291 0.392448,0.608681 0.872105,1.257272 1.627899,2.201244 3.309664,4.886635 4.281849,6.8371183 1.826254,3.664008 3.488584,8.780997 4.315772,13.284842 0.441689,2.404859 0.978687,6.535668 0.864482,6.649875 -0.04211,0.0421 -1.600779,0.257365 -3.463756,0.47839 -7.739455,0.918214 -10.724301,1.463401 -18.678705,3.411711 -2.707548,0.663172 -4.95367,1.205767 -4.991379,1.205767 -0.03775,0 -0.02956,-0.06302 0.01794,-0.140043 C 43.354052,35.823796 40.472604,26.017804 38.567479,20.7401 35.660882,12.688094 33.689248,8.4227087 31.855164,6.2188317 l -0.80768,-0.970525 -1.427947,0.717158 C 23.118499,9.2304817 16.909456,15.80269 13.232908,23.31056 10.945426,27.981824 9.710151,32.240266 8.399646,39.972569 l -0.60832,3.589273 0.439895,2.997189 c 1.491189,10.160177 3.932741,15.676761 9.447905,21.347091 3.260704,3.352436 6.658832,5.831144 10.936066,7.977132 5.345609,2.682017 10.72957,4.138327 18.238531,4.933367 3.292054,0.34856 10.700863,0.22741 13.60887,-0.22253 z M 56.439106,76.92829 c -1.232786,-0.664077 -2.344585,-1.207413 -2.470654,-1.207413 -0.12608,0 -0.22924,-0.03745 -0.22924,-0.08322 0,-0.04577 1.310776,-2.047382 2.91282,-4.448029 2.883324,-4.320611 2.917372,-4.363336 3.361716,-4.219055 0.246891,0.08017 1.466154,0.298288 2.709476,0.484715 1.243323,0.186427 2.285947,0.364322 2.316946,0.395321 0.07094,0.07098 -6.168514,10.296932 -6.278633,10.290108 -0.0446,-0.0028 -1.089645,-0.548356 -2.322431,-1.212433 z m -21.593724,0.626033 c -0.592638,-0.06029 -0.699335,-0.138105 -0.949254,-0.69233 -0.215249,-0.477356 -0.25692,-0.847399 -0.176939,-1.571302 0.05756,-0.520796 0.03028,-1.197239 -0.06057,-1.503207 -0.09085,-0.305967 -0.14508,-0.576393 -0.120532,-0.600945 0.02458,-0.02455 0.652095,-0.0953 1.394552,-0.157219 l 1.349916,-0.112579 -0.08577,-0.906576 c -0.04719,-0.49862 -0.16384,-1.107067 -0.259243,-1.352107 -0.152069,-0.390609 -0.259823,-0.445529 -0.874075,-0.445529 h -0.70061 l -0.639235,-1.311091 c -0.351576,-0.721101 -0.686796,-1.340487 -0.744926,-1.376415 -0.05808,-0.03593 -0.678157,-0.141538 -1.377834,-0.23469 -0.699677,-0.09315 -1.636662,-0.2913 -2.082189,-0.440332 -0.445526,-0.149033 -0.823578,-0.274981 -0.840099,-0.279885 -0.01649,-0.0049 -0.225175,-2.850826 -0.463655,-6.324267 -0.427159,-6.221471 -0.455399,-9.014724 -0.174813,-17.287568 0.02333,-0.686804 -0.184385,-0.604864 2.58684,-1.020646 0.965972,-0.144929 1.783702,-0.236115 1.817189,-0.202634 0.0335,0.03348 0.134087,0.705169 0.223557,1.492643 0.0895,0.787473 0.190234,1.459313 0.223899,1.49298 0.05683,0.0568 6.416141,-2.193396 6.586473,-2.330563 0.04221,-0.03401 -0.126432,-0.622664 -0.374775,-1.308138 -0.248354,-0.685475 -0.465158,-1.307761 -0.481793,-1.382859 -0.06793,-0.306569 5.561812,-2.434063 5.795148,-2.190012 0.0307,0.03213 0.543532,1.407145 1.139593,3.0556 1.154869,3.193895 4.582078,11.898265 6.634066,16.849066 l 1.242265,2.997191 -1.517189,1.478611 c -1.659821,1.617615 -2.161029,1.946233 -3.090557,2.026317 l -0.617021,0.05316 -2.039729,-4.878292 -2.039741,-4.87829 -0.945925,0.319443 -0.945925,0.319445 v 1.660475 c 0,0.913262 -0.04781,2.765638 -0.106302,4.11639 l -0.106303,2.455911 h 0.50238 0.50238 l 0.737998,2.258078 c 0.405888,1.241944 0.737987,2.440805 0.737987,2.664137 0,0.22333 -0.164037,0.587632 -0.364519,0.809558 -0.368749,0.408175 -1.6148,0.908573 -2.273812,0.913129 -0.19737,0.0012 -0.439335,0.05604 -0.537704,0.121507 -0.09832,0.06546 -0.229924,0.875651 -0.292357,1.800414 l -0.113531,1.681386 1.349283,-0.07082 c 1.032492,-0.05419 1.511578,-0.162037 2.040559,-0.459338 0.656399,-0.368915 0.713419,-0.375195 1.130228,-0.124443 0.781348,0.470074 1.038289,0.988385 1.220984,2.463012 0.195347,1.576703 0.158572,1.662961 -0.802733,1.883103 -1.309729,0.29993 -9.435461,0.69127 -11.015643,0.530523 z m 0.703691,-11.496571 c 0.36093,-0.09059 0.37015,-0.13562 0.272476,-1.331205 -0.108024,-1.322394 0.110347,-4.014126 0.525051,-6.471802 0.139956,-0.829467 0.222519,-1.540074 0.183472,-1.579127 -0.0391,-0.03906 -0.393215,0.03341 -0.787031,0.16105 -0.393806,0.12763 -1.247388,0.316741 -1.89686,0.420248 l -1.180837,0.188194 0.09085,0.915863 c 0.09323,0.940611 0.569781,7.479824 0.569781,7.818871 0,0.184748 1.280866,0.114405 2.223151,-0.122092 z m 1.62459,-15.625504 c 2.51724,-0.835851 4.576789,-1.59162 4.576789,-1.679482 0,-0.350942 -1.06375,-2.840836 -1.215072,-2.8441 -0.08909,-0.002 -1.966407,0.628127 -4.171772,1.40011 l -4.009746,1.403606 v 0.681673 c 0,0.37492 -0.04812,1.14207 -0.106945,1.704782 -0.08805,0.842892 -0.06669,1.008142 0.121516,0.938127 0.125645,-0.04674 2.288001,-0.768863 4.80523,-1.604716 z m 31.007042,20.200555 c -2.68693,-3.319243 -3.089406,-3.887813 -2.91646,-4.120078 0.353816,-0.475185 2.801581,-2.942617 2.919156,-2.942617 0.09925,0 5.683226,6.093772 6.273966,6.846739 0.201582,0.256943 0.06264,0.45032 -1.397052,1.944123 -0.891498,0.912339 -1.652768,1.763123 -1.691711,1.89063 -0.04211,0.137871 -1.334162,-1.328811 -3.187899,-3.618797 z m 6.781854,2.207724 c 0,-0.06939 0.15062,-1.144741 0.33469,-2.389652 0.48877,-3.305526 0.59816,-8.641338 0.24397,-11.900488 -0.65048,-5.985453 -2.364562,-13.083323 -4.343425,-17.985735 -0.83955,-2.079878 -2.597127,-5.718453 -3.300341,-6.832415 -0.288095,-0.456359 -0.339545,-0.646956 -0.189073,-0.700359 3.16668,-1.123883 6.561905,-2.657302 7.253889,-3.276144 0.0444,-0.0397 -0.12207,-0.219888 -0.369903,-0.400422 -0.297408,-0.216646 -0.401045,-0.39117 -0.304844,-0.513329 0.08017,-0.101801 0.346807,-0.804774 0.592527,-1.562172 0.24573,-0.757399 0.50279,-1.438516 0.57126,-1.513592 0.17956,-0.196898 7.28921,5.678574 7.28136,6.017374 -0.009,0.401132 -0.58729,3.110338 -0.68426,3.207307 -0.0453,0.04527 -0.54275,-0.215283 -1.10551,-0.579012 -0.56276,-0.363728 -1.10909,-0.62836 -1.21409,-0.588071 -0.10498,0.04029 -0.8376,0.527365 -1.62801,1.082396 -2.56598,1.801829 -2.4761,1.718134 -2.35035,2.188335 0.11149,0.416833 0.13344,0.422521 1.72814,0.447557 1.58222,0.02484 1.64256,0.04007 2.95182,0.745103 l 1.33659,0.719747 v 2.813539 c 0,1.700335 -0.0598,2.776564 -0.15121,2.720091 -0.14566,-0.09003 -3.62137,-0.584203 -3.67721,-0.522829 -0.015,0.01656 0.0447,0.444952 0.13283,0.951973 0.18605,1.070489 -0.18396,0.915917 3.59459,1.50163 1.4147,0.219293 2.61763,0.444252 2.67317,0.499913 0.0556,0.05566 0.1005,1.09747 0.1,2.315134 -9.7e-4,2.106509 -0.0228,2.255502 -0.45129,3.070488 -0.28027,0.533113 -0.51994,0.813523 -0.63469,0.742601 -0.20811,-0.128616 -2.6021,-0.537881 -3.17536,-0.542846 -0.20575,-0.0018 -0.34095,0.05144 -0.30045,0.118269 0.0405,0.06683 0.26902,2.345099 0.50784,5.062821 0.2388,2.717722 0.48387,5.106925 0.54462,5.309337 0.10406,0.346791 0.24357,0.269523 2.41791,-1.33917 l 2.30748,-1.707196 -0.002,-1.820028 c -0.002,-2.692957 -0.29341,-7.85443 -0.57325,-10.163558 -0.29608,-2.443074 -0.98372,-5.924299 -1.77307,-8.976286 -0.32048,-1.239071 -0.52477,-2.306423 -0.45399,-2.371892 0.0708,-0.06547 0.68448,-0.373186 1.36378,-0.683818 l 1.23512,-0.564788 0.6733,2.612659 c 1.86456,7.235114 2.20286,9.52228 2.20286,14.893175 0,3.864526 0.0196,4.155734 0.26032,3.858431 0.24546,-0.303197 0.26623,-0.245811 0.36355,1.004324 0.18468,2.372172 0.14211,2.801056 -0.38086,3.837056 -0.44969,0.890812 -0.48622,1.093422 -0.48861,2.709051 l -0.002,1.746232 -1.68771,0.931558 c -0.92824,0.512358 -1.72504,0.931559 -1.77065,0.931559 -0.0456,0 -0.10517,-0.329547 -0.13232,-0.732332 l -0.0494,-0.73233 -1.57961,1.151111 -1.5796,1.151112 -1.4e-4,1.079815 -1.5e-4,1.079814 -1.42108,0.693636 c -1.61641,0.789008 -4.89696,1.596457 -4.89696,1.205316 z M 56.399831,66.526796 c -0.227425,-0.512358 -0.560302,-1.365445 -0.73972,-1.895752 -0.179428,-0.530306 -0.429855,-1.164601 -0.556526,-1.409544 -0.506051,-0.978594 -0.355029,-1.152817 1.593353,-1.838104 0.42382,-0.149067 0.742084,-0.319502 0.707237,-0.378744 -0.03485,-0.05924 -0.479542,-1.08527 -0.988238,-2.280063 -0.928689,-2.181277 -1.816495,-4.166042 -2.3137,-5.172488 -0.278854,-0.564436 -0.429596,-0.588176 -1.740112,-0.274008 -0.960683,0.230303 -0.880962,0.331047 -2.176202,-2.74981 -0.674309,-1.603902 -1.285076,-3.007452 -1.357268,-3.119001 -0.0868,-0.134092 -0.0041,-0.252013 0.243012,-0.348004 1.595894,-0.619082 2.175341,-0.867917 2.296743,-0.986307 0.07841,-0.07651 -0.514358,-1.866046 -1.344274,-4.057982 -0.816547,-2.156613 -1.448533,-3.957206 -1.404425,-4.00132 0.218526,-0.218524 5.494671,-1.837396 5.603068,-1.719179 0.111436,0.121545 1.769348,4.228871 2.622008,6.495802 0.175964,0.467805 0.411063,0.850555 0.522447,0.850555 0.111384,0 0.88987,-0.279777 1.72997,-0.62173 l 1.527446,-0.621726 -0.03609,-0.876868 c -0.01981,-0.482275 -0.118789,-2.430413 -0.219906,-4.329193 -0.101117,-1.89878 -0.151146,-3.485021 -0.111187,-3.524978 0.119235,-0.11924 4.503258,-0.443323 4.606076,-0.3405 0.07011,0.07011 0.639349,4.181606 1.020264,7.369226 0.0093,0.07548 0.592846,-0.10504 1.843636,-0.570068 1.304833,-0.485116 1.338673,-0.46714 1.891529,1.004678 0.200823,0.534633 0.677773,1.800629 1.059891,2.813321 l 0.694751,1.841261 -1.76829,0.831908 c -1.67125,0.786256 -1.768333,0.858583 -1.769017,1.317941 -0.001,0.720991 0.956431,9.032167 1.051533,9.127265 0.04491,0.04491 0.458749,-0.0054 0.919655,-0.111778 0.556983,-0.12857 0.871877,-0.138623 0.939029,-0.02998 0.206745,0.334537 0.85548,4.889212 0.714808,5.018598 -0.07923,0.07286 -0.982431,0.367113 -2.007155,0.653897 -3.530296,0.988012 -5.599065,1.753806 -8.933091,3.306758 -1.839062,0.856612 -3.425653,1.557476 -3.525764,1.557476 -0.10008,0 -0.368097,-0.419201 -0.595521,-0.931558 z m 7.516666,-7.815242 c 0.08473,-0.0029 -0.136606,-2.542208 -0.395611,-4.538041 -0.277226,-2.136361 -0.805098,-4.697097 -1.010629,-4.902621 -0.0784,-0.07841 -0.665495,0.06382 -1.336724,0.323836 -0.978262,0.378944 -1.187278,0.521365 -1.144135,0.779604 0.05538,0.331768 2.096656,8.272918 2.214024,8.613412 0.05217,0.151381 0.247576,0.142416 0.844663,-0.03875 0.427222,-0.129627 0.800006,-0.236474 0.828412,-0.23744 z m 25.530342,-0.852308 c 0.006,-8.337322 -0.60586,-13.862529 -2.35211,-19.289332 -0.78949,-2.657803 -1.94152,-4.874497 -3.027,-7.00885 l -1.16669,-2.339961 -0.88283,0.103758 c -0.79018,0.09287 -0.9341,0.0606 -1.37162,-0.307546 l -0.48881,-0.411304 0.56253,-0.429056 c 0.40762,-0.321322 0.52735,-0.319591 0.88104,-0.651955 0.0901,-0.05567 0.24435,-0.251768 0.34284,-0.43577 0.10008,-0.187105 0.1088,-0.291139 0.0197,-0.236052 -0.25563,-0.732574 -0.5023,-0.981643 -0.77219,-1.381283 -0.0116,-0.60248 0.13609,-0.490849 0.76285,-0.892255 0.21694,-0.18607 0.44169,-0.378019 0.70188,-0.378019 2.4104,5.764315 4.96987,10.76439 6.48835,16.68329 1.35639,5.391099 1.84967,9.349161 1.97199,15.822937 l 0.0923,4.883482 -0.76132,0.98939 c -0.41873,0.544163 -0.81617,0.989388 -0.8832,0.989388 -0.067,0 -0.12006,-2.569887 -0.11784,-5.710862 z"
       id="path1178"
       sodipodi:nodetypes="sssscssssssssssssssssssscssssscsssssssssscsscssssssssssssssssssssscsscssscsssssssssssssssssssssscssscssssssssssssssssscsscccccsscccsssssscsssssssssssscsssssssscsssssssssssssssssssssssssssssscssssssssssssssccsssscsssssccssscccccssssssssssssscssssssscsssscssscssssssssssssssssssssscccsscccscccccscssss"
       inkscape:label="path1178" /></g></svg>
