<?xml version="1.0" encoding="UTF-8" standalone="no"?>
<svg
   id="Layer_1"
   viewBox="0 0 50.099998 50.099998"
   version="1.1"
   sodipodi:docname="ko-fi.svg"
   width="50.099998"
   height="50.099998"
   inkscape:version="1.2.2 (732a01da63, 2022-12-09)"
   xmlns:inkscape="http://www.inkscape.org/namespaces/inkscape"
   xmlns:sodipodi="http://sodipodi.sourceforge.net/DTD/sodipodi-0.dtd"
   xmlns="http://www.w3.org/2000/svg"
   xmlns:svg="http://www.w3.org/2000/svg">
  <sodipodi:namedview
     id="namedview103"
     pagecolor="#ffffff"
     bordercolor="#000000"
     borderopacity="0.25"
     inkscape:showpageshadow="2"
     inkscape:pageopacity="0.0"
     inkscape:pagecheckerboard="0"
     inkscape:deskcolor="#d1d1d1"
     showgrid="false"
     inkscape:zoom="7.1176471"
     inkscape:cx="74.11157"
     inkscape:cy="25.008264"
     inkscape:window-width="1920"
     inkscape:window-height="1017"
     inkscape:window-x="-8"
     inkscape:window-y="-8"
     inkscape:window-maximized="1"
     inkscape:current-layer="Layer_1" />
  <defs
     id="defs56">
    <style
       id="style54">.cls-1{fill:#00bbf1;}.cls-2{fill:#fff;}.cls-3{fill:#ff5f5f;}.cls-4{fill:#333a45;}.cls-5{opacity:.8;}</style>
  </defs>
  <circle
     class="cls-1"
     cx="25.049999"
     cy="25.049999"
     r="25.049999"
     id="circle94" />
  <g
     id="g99"
     transform="translate(-6.9599991,-7.0800018)">
    <path
       id="path38"
       class="cls-2"
       d="m 43.42,34.33 c -1.38,0.17 -2.5,0.04 -2.5,0.04 v -8.46 h 1.7 c 1.12,0 2.21,0.47 2.94,1.32 0.52,0.6 0.93,1.44 0.93,2.61 0,2.85 -1.47,3.97 -3.06,4.49 m 7.27,-5.94 c -0.5,-2.62 -1.91,-4.25 -3.35,-5.26 -1.44,-1.01 -3.28,-1.58 -5.1,-1.58 H 16.38 c -0.9,0 -1.24,0.88 -1.25,1.32 0,0.06 0,0.29 0,0.29 0,0 -0.04,11.44 0.04,17.55 0.24,3.61 3.86,3.61 3.86,3.61 0,0 11.8,-0.03 17.46,-0.07 0.27,0 0.53,-0.03 0.79,-0.09 3.22,-0.81 3.55,-3.8 3.52,-5.47 6.48,0.36 11.04,-4.21 9.89,-10.29" />
    <path
       d="m 19.03,45.32 c -1.58,0 -4.61,-0.95 -4.86,-4.54 -0.08,-6.1 -0.04,-17.5 -0.04,-17.62 v -0.3 c 0,-0.92 0.72,-2.3 2.25,-2.3 h 25.86 c 2.07,0 4.03,0.61 5.68,1.76 2.02,1.41 3.29,3.39 3.76,5.89 v 0 c 0.58,3.06 -0.14,5.94 -2.03,8.1 -1.86,2.12 -4.69,3.33 -7.87,3.4 -0.23,2.88 -1.71,4.79 -4.25,5.42 -0.32,0.08 -0.67,0.12 -1.02,0.12 -5.66,0.04 -17.46,0.07 -17.46,0.07 v 0 z M 16.38,22.56 c -0.2,0 -0.25,0.32 -0.25,0.33 v 0.27 c 0,0.13 -0.04,11.51 0.04,17.54 0.17,2.54 2.58,2.62 2.86,2.62 v 0 c 0,0 11.79,-0.03 17.45,-0.07 0.2,0 0.38,-0.02 0.55,-0.06 1.88,-0.47 2.81,-1.98 2.76,-4.48 0,-0.28 0.11,-0.55 0.31,-0.74 0.2,-0.19 0.47,-0.3 0.75,-0.28 2.97,0.16 5.63,-0.82 7.28,-2.7 1.48,-1.68 2.04,-3.96 1.57,-6.41 v 0 c -0.37,-1.97 -1.36,-3.52 -2.94,-4.62 -1.31,-0.92 -2.88,-1.4 -4.53,-1.4 z m 25.56,12.86 c -0.67,0 -1.11,-0.05 -1.14,-0.05 -0.5,-0.06 -0.89,-0.49 -0.89,-0.99 v -8.46 c 0,-0.55 0.45,-1 1,-1 h 1.7 c 1.44,0 2.79,0.61 3.7,1.67 0.78,0.9 1.17,2 1.17,3.26 0,2.8 -1.26,4.63 -3.75,5.44 -0.06,0.02 -0.12,0.03 -0.18,0.04 -0.6,0.08 -1.15,0.1 -1.6,0.1 z m 1.48,-1.09 z m -1.5,-0.91 c 0.35,0.01 0.8,-0.02 1.29,-0.07 1.14,-0.39 2.28,-1.13 2.28,-3.51 0,-0.77 -0.23,-1.43 -0.69,-1.95 -0.53,-0.62 -1.33,-0.97 -2.18,-0.97 h -0.7 z"
       id="path97" />
  </g>
  <path
     id="path42"
     class="cls-3"
     d="m 20.840001,32.489998 c 0.28,0.14 0.46,-0.03 0.46,-0.03 0,0 4.12,-3.76 5.97,-5.92 1.65,-1.94 1.76,-5.2 -1.08,-6.41 -2.83,-1.22 -5.16,1.43 -5.16,1.43 -2.02,-2.22 -5.08,-2.11 -6.49,-0.61 -1.41,1.5 -0.92,4.08 0.13,5.52 0.99,1.35 5.34,5.23 6,5.88 0,0 0.05,0.05 0.16,0.13" />
</svg>
