<?xml version="1.0" encoding="UTF-8" standalone="no"?>
<!-- Created with Inkscape (http://www.inkscape.org/) -->

<svg
   width="700mm"
   height="100mm"
   viewBox="0 0 700 100"
   version="1.1"
   id="svg5"
   xml:space="preserve"
   inkscape:version="1.2.2 (732a01da63, 2022-12-09)"
   sodipodi:docname="text.svg"
   xmlns:inkscape="http://www.inkscape.org/namespaces/inkscape"
   xmlns:sodipodi="http://sodipodi.sourceforge.net/DTD/sodipodi-0.dtd"
   xmlns="http://www.w3.org/2000/svg"
   xmlns:svg="http://www.w3.org/2000/svg"><sodipodi:namedview
     id="namedview7"
     pagecolor="#ffffff"
     bordercolor="#000000"
     borderopacity="0.25"
     inkscape:showpageshadow="2"
     inkscape:pageopacity="0.0"
     inkscape:pagecheckerboard="0"
     inkscape:deskcolor="#d1d1d1"
     inkscape:document-units="mm"
     showgrid="false"
     inkscape:zoom="0.5"
     inkscape:cx="1681"
     inkscape:cy="334"
     inkscape:window-width="1920"
     inkscape:window-height="1017"
     inkscape:window-x="-8"
     inkscape:window-y="-8"
     inkscape:window-maximized="1"
     inkscape:current-layer="layer3" /><defs
     id="defs2" /><g
     inkscape:groupmode="layer"
     id="layer3"
     inkscape:label="Helmet"><path
       style="display:inline;fill:#de3163;stroke:#de3163;stroke-width:0.156215;stroke-opacity:1;fill-opacity:1"
       d="m 55.187498,98.281339 c -2.92754,-0.298926 -8.35863,-1.587242 -12.18479,-2.890358 -6.8409,-2.329877 -13.6642,-6.271044 -20.92606,-12.086984 C 13.470028,76.411062 7.869508,69.698965 5.991958,64.026885 5.161428,61.517833 5.003108,60.49116 5.000048,57.59439 c -0.002,-2.263285 0.0573,-2.944662 0.40398,-4.611687 0.44734,-2.151024 1.27514,-4.682418 2.4536,-7.503028 0.65651,-1.571342 0.83584,-2.241529 1.23757,-4.62491 1.19643,-7.098086 2.41361,-11.670312 4.20836,-15.808317 2.30861,-5.32276 6.55607,-11.002955 10.91993,-14.60337 5.83537,-4.8144963 8.27451,-6.7531154 19.19369,-8.0730648 2.61634,-0.3162712 8.4962,-0.550454 11.00101,-0.1823626 4.32654,0.635802 7.00396,1.4636969 9.98601,2.7155126 4.47651,1.8791692 9.67118,5.7759088 13.56304,10.1742048 8.1539,9.214959 11.47158,17.242236 13.84549,33.499804 0.47341,3.242121 0.62084,3.925316 1.01603,4.708175 0.72524,1.43669 2.26485,5.120188 2.71519,6.496057 1.40918,4.305253 1.62882,8.294063 0.70947,12.884605 -1.29659,6.474219 -6.17723,13.833029 -12.31985,18.575304 -4.30098,3.320476 -9.11557,5.212835 -16.13742,6.34276 -1.37777,0.22171 -9.99175,0.879096 -10.96839,0.837066 -0.25776,-0.0111 -0.99587,-0.074 -1.64026,-0.1398 z m -1.24972,-2.23531 c 0,-1.944202 -0.55627,-6.781451 -1.3534,-11.7691 l -0.40431,-2.529715 -0.80046,-0.08166 c -0.44025,-0.04491 -1.71432,-0.157343 -2.83126,-0.249846 -9.51767,-0.788242 -16.92513,-3.17435 -23.5104,-7.573223 -2.50319,-1.672097 -4.08502,-2.952473 -5.99147,-4.849644 -5.53376,-5.506848 -8.30758,-11.372253 -9.76762,-20.654228 l -0.26415,-1.679294 -0.71984,1.952691 c -1.37267,3.723639 -1.84654,6.029548 -1.84654,8.985583 0,4.441389 1.29191,7.876578 4.71023,12.524533 5.06783,6.89081 14.9873,15.165401 24.26771,20.243545 3.61993,1.98079 7.91721,3.6936 12.06194,4.807643 1.69848,0.45653 5.80041,1.366679 6.2543,1.387726 0.11921,0.0055 0.19527,-0.195074 0.19527,-0.515014 z m 30.2627,-7.106713 c 3.55131,-3.065023 6.75846,-7.233851 8.73124,-11.349373 1.75173,-3.654364 2.28753,-6.054891 2.30125,-10.310207 0.009,-2.837961 -0.0116,-3.047225 -0.4726,-4.773096 -0.43745,-1.637606 -1.85956,-5.507064 -2.23594,-6.083864 -0.10399,-0.159354 -0.15397,0.415406 -0.15622,1.796475 -0.01,5.980333 -1.67244,9.727345 -5.67761,12.795061 -1.41407,1.083086 -4.61823,3.000034 -6.94387,4.154295 -1.98504,0.985215 -1.92801,0.873935 -1.5044,2.935622 0.45094,2.194709 1.72558,5.833888 3.10276,8.85863 0.64573,1.41825 1.50012,2.889982 1.67772,2.889982 0.0656,0 0.59551,-0.411087 1.17767,-0.913525 z m -23.31112,-9.228021 c 4.67516,-0.723363 8.70231,-1.68551 11.46061,-2.738118 1.88579,-0.719646 6.76941,-3.027231 8.84737,-4.180522 6.79578,-3.771726 8.97192,-6.495177 9.6215,-12.041407 0.31126,-2.657562 0.0943,-7.969522 -0.48618,-11.904912 -1.33209,-9.030562 -2.64204,-14.217065 -4.95163,-19.605015 -3.9259,-9.158607 -12.54448,-18.5498 -20.56971,-22.4136751 -1.64871,-0.7938036 -4.46872,-1.8764876 -4.46872,-1.7156778 0,0.041374 0.37841,0.5869085 0.84091,1.2122999 1.56967,2.1225068 3.19128,4.711843 4.12869,6.592559 1.76093,3.532948 3.3638,8.466906 4.1614,12.809651 0.42589,2.318839 0.94368,6.301892 0.83356,6.412014 -0.0406,0.04059 -1.54352,0.248159 -3.33986,0.461278 -7.46262,0.88537 -10.3407,1.411056 -18.01058,3.289676 -2.6107,0.639451 -4.77648,1.162638 -4.81284,1.162638 -0.0364,0 -0.0285,-0.06077 0.0173,-0.135034 0.23155,-0.374648 -2.54683,-9.829886 -4.38381,-14.91881 -2.80263,-7.763991 -4.70374,-11.876806 -6.47222,-14.0018512 l -0.77879,-0.9358103 -1.37687,0.6915053 c -6.2685,3.1482302 -12.25545,9.4853542 -15.80049,16.7246722 -2.20566,4.504176 -3.39675,8.610297 -4.66038,16.06602 l -0.58656,3.460887 0.42416,2.889982 c 1.43785,9.796754 3.79207,15.116013 9.10996,20.583519 3.14407,3.232522 6.42065,5.622568 10.54489,7.691796 5.1544,2.586081 10.34578,3.990304 17.58615,4.756904 3.1743,0.336091 10.3181,0.219277 13.12209,-0.214569 z m -3.87962,-3.53468 c -1.18869,-0.640323 -2.26072,-1.164224 -2.38228,-1.164224 -0.12157,0 -0.22104,-0.03611 -0.22104,-0.08024 0,-0.04413 1.26389,-1.974148 2.80863,-4.288926 2.78019,-4.166065 2.81302,-4.207262 3.24147,-4.068142 0.23806,0.0773 1.41371,0.287619 2.61256,0.467377 1.19885,0.179759 2.20418,0.351291 2.23407,0.381181 0.0684,0.06844 -5.94787,9.928617 -6.05405,9.922037 -0.043,-0.0027 -1.05067,-0.528741 -2.23936,-1.169065 z m -20.82133,0.60364 c -0.57144,-0.05813 -0.67432,-0.133165 -0.9153,-0.667565 -0.20755,-0.460282 -0.24773,-0.817088 -0.17061,-1.515098 0.0555,-0.502167 0.0292,-1.154414 -0.0584,-1.449438 -0.0876,-0.295023 -0.13989,-0.555776 -0.11622,-0.57945 0.0237,-0.02367 0.62877,-0.09189 1.34467,-0.151595 l 1.30163,-0.108552 -0.0827,-0.874149 c -0.0455,-0.480784 -0.15798,-1.067468 -0.24997,-1.303743 -0.14663,-0.376637 -0.25053,-0.429592 -0.84281,-0.429592 h -0.67555 l -0.61637,-1.264194 c -0.339,-0.695308 -0.66223,-1.292539 -0.71828,-1.327182 -0.056,-0.03464 -0.6539,-0.136475 -1.32855,-0.226295 -0.67465,-0.08982 -1.57812,-0.280881 -2.00771,-0.424582 -0.42959,-0.143702 -0.79412,-0.265145 -0.81005,-0.269874 -0.0159,-0.0047 -0.21712,-2.748853 -0.44707,-6.098052 -0.41188,-5.998933 -0.43911,-8.692273 -0.16856,-16.669203 0.0225,-0.662237 -0.17779,-0.583228 2.49431,-0.984138 0.93142,-0.139745 1.7199,-0.227669 1.75219,-0.195386 0.0323,0.03228 0.12929,0.679946 0.21556,1.439252 0.0863,0.759306 0.18343,1.407115 0.21589,1.439577 0.0548,0.05477 6.18664,-2.114939 6.35088,-2.2472 0.0407,-0.03279 -0.12191,-0.600392 -0.36137,-1.261347 -0.23947,-0.660956 -0.44852,-1.260983 -0.46456,-1.333395 -0.0655,-0.295603 5.36287,-2.346998 5.58786,-2.111676 0.0296,0.03098 0.52409,1.356812 1.09883,2.946303 1.11356,3.079651 4.41818,11.472672 6.39677,16.246386 l 1.19783,2.889983 -1.46292,1.425722 c -1.60045,1.559754 -2.08373,1.876618 -2.98001,1.953837 l -0.59495,0.05126 -1.96677,-4.703799 -1.96678,-4.703797 -0.91209,0.308017 -0.91209,0.308019 v 1.601081 c 0,0.880595 -0.0461,2.666712 -0.1025,3.969149 l -0.1025,2.368065 h 0.48441 0.48441 l 0.7116,2.177308 c 0.39137,1.19752 0.71159,2.353499 0.71159,2.568842 0,0.215342 -0.15817,0.566613 -0.35148,0.780601 -0.35556,0.393575 -1.55704,0.876074 -2.19248,0.880467 -0.19031,0.0012 -0.42362,0.05404 -0.51847,0.117161 -0.0948,0.06312 -0.2217,0.844329 -0.2819,1.736014 l -0.10947,1.621244 1.30102,-0.06829 c 0.99556,-0.05225 1.45751,-0.156241 1.96757,-0.442908 0.63292,-0.355719 0.6879,-0.361774 1.0898,-0.119991 0.7534,0.453259 1.00115,0.953031 1.17731,2.374911 0.18836,1.520306 0.1529,1.603478 -0.77402,1.815746 -1.26288,0.289202 -9.09796,0.666544 -10.62162,0.511546 z m 0.67852,-11.085346 c 0.34802,-0.08735 0.35691,-0.130769 0.26273,-1.283588 -0.10416,-1.275093 0.1064,-3.870544 0.50627,-6.24031 0.13495,-0.799798 0.21456,-1.484987 0.17691,-1.522643 -0.0377,-0.03766 -0.37915,0.03222 -0.75888,0.155289 -0.37972,0.123065 -1.20277,0.305412 -1.82901,0.405216 l -1.1386,0.181463 0.0876,0.883103 c 0.0899,0.906966 0.5494,7.212276 0.5494,7.539195 0,0.17814 1.23505,0.110313 2.14363,-0.117725 z m 1.56648,-15.06659 c 2.4272,-0.805953 4.41308,-1.534688 4.41308,-1.619408 0,-0.338389 -1.0257,-2.739221 -1.17161,-2.742368 -0.0859,-0.0019 -1.89607,0.605659 -4.02255,1.350029 l -3.86632,1.3534 v 0.65729 c 0,0.361509 -0.0464,1.101219 -0.10312,1.643803 -0.0849,0.812742 -0.0643,0.972081 0.11717,0.904571 0.12115,-0.04507 2.20616,-0.741362 4.63335,-1.547317 z m 29.89794,19.477995 c -2.59082,-3.200516 -2.9789,-3.748749 -2.81214,-3.972706 0.34116,-0.458188 2.70137,-2.837361 2.81474,-2.837361 0.0957,0 5.47994,5.875801 6.04955,6.601835 0.19437,0.247753 0.0604,0.434213 -1.34708,1.874583 -0.85961,0.879706 -1.59365,1.700058 -1.6312,1.823004 -0.0406,0.132939 -1.28644,-1.281281 -3.07387,-3.489355 z m 6.53927,2.128755 c 0,-0.06691 0.14523,-1.103794 0.32272,-2.304176 0.47129,-3.187289 0.57676,-8.332243 0.23524,-11.474815 -0.62721,-5.771357 -2.27998,-12.615341 -4.18806,-17.342397 -0.80952,-2.005482 -2.50423,-5.513908 -3.18229,-6.588024 -0.27779,-0.440035 -0.3274,-0.623815 -0.18231,-0.675308 3.05341,-1.083682 6.32719,-2.562252 6.99442,-3.158958 0.0428,-0.03828 -0.1177,-0.212023 -0.35667,-0.386099 -0.28677,-0.208897 -0.3867,-0.377178 -0.29394,-0.494968 0.0773,-0.09816 0.3344,-0.775988 0.57133,-1.506294 0.23694,-0.730307 0.48481,-1.387061 0.55083,-1.459452 0.17314,-0.189855 7.02848,5.475455 7.02091,5.802137 -0.009,0.386783 -0.56628,2.999083 -0.65978,3.092583 -0.0437,0.04365 -0.52334,-0.207582 -1.06597,-0.558301 -0.54263,-0.350717 -1.06942,-0.605884 -1.17066,-0.567036 -0.10123,0.03885 -0.80764,0.508502 -1.56978,1.04368 -2.4742,1.737378 -2.38753,1.656677 -2.26628,2.110059 0.1075,0.401923 0.12867,0.407408 1.66633,0.431548 1.52562,0.02395 1.5838,0.03864 2.84623,0.718452 l 1.28878,0.694002 v 2.7129 c 0,1.639515 -0.0577,2.677248 -0.1458,2.622795 -0.14045,-0.08681 -3.49184,-0.563306 -3.54568,-0.504127 -0.0145,0.01597 0.0431,0.429036 0.12808,0.917921 0.1794,1.032198 -0.17738,0.883155 3.46601,1.447918 1.3641,0.211449 2.524,0.428361 2.57756,0.482031 0.0536,0.05367 0.0969,1.058214 0.0964,2.232323 -9.4e-4,2.031161 -0.022,2.174825 -0.43515,2.960659 -0.27025,0.514044 -0.50134,0.784424 -0.61199,0.716039 -0.20066,-0.124016 -2.50902,-0.518642 -3.06178,-0.523429 -0.19839,-0.0017 -0.32875,0.0496 -0.2897,0.114039 0.039,0.06444 0.2594,2.261216 0.48967,4.881727 0.23026,2.620511 0.46657,4.924253 0.52514,5.119425 0.10034,0.334387 0.23486,0.259883 2.33143,-1.291269 l 2.22494,-1.64613 -0.002,-1.754927 c -0.002,-2.596632 -0.28292,-7.573482 -0.55275,-9.800014 -0.28549,-2.355687 -0.94853,-5.712391 -1.70965,-8.65521 -0.30901,-1.194751 -0.50599,-2.223924 -0.43775,-2.287051 0.0683,-0.06313 0.66,-0.359838 1.315,-0.659359 l 1.19092,-0.544585 0.64922,2.519205 c 1.79786,6.976319 2.12406,9.181675 2.12406,14.360456 0,3.726295 0.0189,4.007086 0.25101,3.720418 0.23668,-0.292352 0.25671,-0.237019 0.35055,0.9684 0.17807,2.287321 0.13703,2.700864 -0.36724,3.699807 -0.4336,0.858948 -0.46883,1.054311 -0.47113,2.61215 l -0.002,1.68377 -1.62734,0.898237 c -0.89504,0.494031 -1.66334,0.898238 -1.70732,0.898238 -0.044,0 -0.10141,-0.31776 -0.12759,-0.706137 l -0.0476,-0.706135 -1.5231,1.109936 -1.5231,1.109938 -1.4e-4,1.04119 -1.4e-4,1.04119 -1.37025,0.668825 c -1.55859,0.760786 -4.7218,1.539353 -4.7218,1.162203 z m -17.89875,-6.087893 c -0.21929,-0.494031 -0.54026,-1.316604 -0.71326,-1.827942 -0.17301,-0.511338 -0.41448,-1.122944 -0.53662,-1.359126 -0.48795,-0.94359 -0.34233,-1.111581 1.53636,-1.772356 0.40866,-0.143735 0.71554,-0.308074 0.68194,-0.365197 -0.0336,-0.05712 -0.46239,-1.04645 -0.95289,-2.198506 -0.89547,-2.103254 -1.75152,-4.017026 -2.23094,-4.987472 -0.26888,-0.544246 -0.41423,-0.567137 -1.67787,-0.264207 -0.92632,0.222066 -0.84945,0.319206 -2.09836,-2.651451 -0.65019,-1.546531 -1.23911,-2.899877 -1.30872,-3.007436 -0.0837,-0.129296 -0.004,-0.242999 0.23432,-0.335556 1.53881,-0.596938 2.09753,-0.836872 2.21459,-0.951028 0.0756,-0.07377 -0.49596,-1.799298 -1.29619,-3.91283 -0.78734,-2.079473 -1.39672,-3.81566 -1.35419,-3.858196 0.21071,-0.210707 5.29813,-1.771673 5.40265,-1.657685 0.10745,0.117198 1.70606,4.077607 2.52822,6.263452 0.16967,0.451072 0.39636,0.820131 0.50376,0.820131 0.1074,0 0.85804,-0.26977 1.66809,-0.599491 l 1.47281,-0.599488 -0.0348,-0.845503 c -0.0191,-0.465024 -0.11454,-2.343478 -0.21204,-4.17434 -0.0975,-1.830862 -0.14574,-3.360364 -0.10721,-3.398892 0.11497,-0.114975 4.34218,-0.427466 4.44132,-0.328321 0.0676,0.0676 0.61648,4.032033 0.98377,7.105634 0.009,0.07278 0.57164,-0.101283 1.77769,-0.549677 1.25816,-0.467764 1.29079,-0.450431 1.82387,0.968741 0.19364,0.51551 0.65353,1.736222 1.02198,2.712691 l 0.6699,1.7754 -1.70504,0.802151 c -1.61147,0.758132 -1.70508,0.827872 -1.70574,1.270799 -0.001,0.695202 0.92222,8.709093 1.01392,8.800789 0.0433,0.0433 0.44234,-0.0052 0.88676,-0.10778 0.53706,-0.123971 0.84069,-0.133664 0.90544,-0.02891 0.19935,0.322571 0.82488,4.714328 0.68924,4.839086 -0.0764,0.07025 -0.94729,0.353981 -1.93536,0.630507 -3.40402,0.952672 -5.39879,1.691074 -8.61356,3.188478 -1.77328,0.825971 -3.30312,1.501766 -3.39965,1.501766 -0.0965,0 -0.35493,-0.404207 -0.57422,-0.898237 z m 7.2478,-7.535696 c 0.0817,-0.0028 -0.13172,-2.451275 -0.38146,-4.375718 -0.26731,-2.059945 -0.7763,-4.529085 -0.97448,-4.727258 -0.0756,-0.0756 -0.64169,0.06154 -1.28891,0.312253 -0.94327,0.365389 -1.14481,0.502716 -1.10321,0.751718 0.0534,0.319901 2.02166,7.977001 2.13483,8.305316 0.0503,0.145966 0.23872,0.137322 0.81445,-0.03736 0.41194,-0.124991 0.77139,-0.228016 0.79878,-0.228947 z m 24.61714,-0.821821 c 0.006,-8.039102 -0.58419,-13.366676 -2.26798,-18.599366 -0.76125,-2.562735 -1.87207,-4.700139 -2.91872,-6.758148 l -1.12496,-2.256262 -0.85125,0.100047 c -0.76192,0.08955 -0.90069,0.05843 -1.32256,-0.296545 l -0.47133,-0.396592 0.54241,-0.413709 c 0.39304,-0.309829 0.50849,-0.30816 0.84953,-0.628635 0.0869,-0.05368 0.23561,-0.242763 0.33057,-0.420183 0.0965,-0.180412 0.10491,-0.280725 0.019,-0.227609 -0.24648,-0.70637 -0.48433,-0.94653 -0.74457,-1.331875 -0.0112,-0.58093 0.13123,-0.473292 0.73557,-0.86034 0.20918,-0.179414 0.42589,-0.364497 0.67677,-0.364497 2.32418,5.558129 4.7921,10.379355 6.25627,16.086539 1.30787,5.198263 1.78351,9.014748 1.90145,15.256961 l 0.089,4.708803 -0.73409,0.954 c -0.40375,0.524699 -0.78697,0.953999 -0.85161,0.953999 -0.0646,0 -0.11576,-2.477964 -0.11362,-5.506588 z"
       id="path1178"
       sodipodi:nodetypes="sssscssssssssssssssssssscssssscsssssssssscsscssssssssssssssssssssscsscssscsssssssssssssssssssssscssscssssssssssssssssscsscccccsscccsssssscsssssssssssscsssssssscsssssssssssssssssssssssssssssscssssssssssssssccsssscsssssccssscccccssssssssssssscssssssscsssscssscssssssssssssssssssssscccsscccscccccscssss"
       inkscape:label="path1178" /><rect
       style="fill:#de3163;fill-opacity:1;stroke:#de3163;stroke-width:11.8239;stroke-dasharray:none;stroke-opacity:1"
       id="rect22089"
       width="440.41306"
       height="10.176117"
       x="245.91199"
       y="40.911942" /></g><g
     inkscape:groupmode="layer"
     id="layer4"
     inkscape:label="Text"
     style="display:inline"><text
       xml:space="preserve"
       style="font-style:normal;font-variant:normal;font-weight:normal;font-stretch:normal;font-size:52.9167px;font-family:Haettenschweiler;-inkscape-font-specification:Haettenschweiler;white-space:pre;inline-size:684.742;display:inline;fill:#000000;stroke:#000000;stroke-width:0.264583"
       x="223.8582"
       y="46.544777"
       id="text1282"
       transform="translate(-219.47444,-4.0245642)"
       inkscape:label="text1282"><tspan
         x="223.8582"
         y="46.544777"
         id="tspan262">If It Stops, I'm</tspan></text><text
       xml:space="preserve"
       style="font-style:normal;font-variant:normal;font-weight:normal;font-stretch:normal;font-size:75.8472px;font-family:Haettenschweiler;-inkscape-font-specification:Haettenschweiler;fill:#000000;stroke:#000000;stroke-width:0.264583"
       x="239.02126"
       y="88.240143"
       id="text5075"><tspan
         sodipodi:role="line"
         id="tspan5073"
         style="font-size:75.8472px;stroke-width:0.264583"
         x="239.02126"
         y="88.240143">Having a Bad Dream</tspan></text></g></svg>
