<?xml version="1.0" encoding="UTF-8" standalone="no"?>
<!-- Created with Inkscape (http://www.inkscape.org/) -->

<svg
   width="100mm"
   height="100mm"
   viewBox="0 0 100 100"
   version="1.1"
   id="svg5"
   xml:space="preserve"
   inkscape:version="1.2.2 (732a01da63, 2022-12-09)"
   sodipodi:docname="favicon.svg"
   xmlns:inkscape="http://www.inkscape.org/namespaces/inkscape"
   xmlns:sodipodi="http://sodipodi.sourceforge.net/DTD/sodipodi-0.dtd"
   xmlns="http://www.w3.org/2000/svg"
   xmlns:svg="http://www.w3.org/2000/svg"><sodipodi:namedview
     id="namedview7"
     pagecolor="#ffffff"
     bordercolor="#000000"
     borderopacity="0.25"
     inkscape:showpageshadow="2"
     inkscape:pageopacity="0.0"
     inkscape:pagecheckerboard="0"
     inkscape:deskcolor="#d1d1d1"
     inkscape:document-units="mm"
     showgrid="false"
     inkscape:zoom="1"
     inkscape:cx="116"
     inkscape:cy="278.5"
     inkscape:window-width="1920"
     inkscape:window-height="991"
     inkscape:window-x="-9"
     inkscape:window-y="-9"
     inkscape:window-maximized="1"
     inkscape:current-layer="layer3" /><defs
     id="defs2" /><g
     inkscape:groupmode="layer"
     id="layer3"
     inkscape:label="Helmet"><path
       style="fill:#ff0000;stroke-width:0.16201"
       d="M 54.549266,99.853016 C 51.513126,99.543001 45.880562,98.206893 41.912466,96.855437 34.817794,94.43913 27.741376,90.351761 20.210128,84.320071 11.284234,77.171434 5.4759561,70.210343 3.528756,64.32785 2.6674164,61.725722 2.5032234,60.660963 2.5000498,57.656734 2.4979757,55.309489 2.5594755,54.602836 2.919016,52.87397 3.3829506,50.643151 4.2414589,48.017852 5.4636354,45.092608 6.1444995,43.462975 6.3304819,42.767927 6.7471146,40.296131 7.9879277,32.934733 9.2502605,28.192894 11.111589,23.901385 13.50584,18.38117 17.910865,12.490262 22.436607,8.7562839 c 6.051841,-4.9930954 8.581464,-7.00363 19.905704,-8.37254457 2.713397,-0.32800368 8.811378,-0.57087379 11.409107,-0.18912757 4.487038,0.65938787 7.26378,1.51799454 10.356453,2.81624794 4.642572,1.9488793 10.029945,5.9901727 14.066178,10.5516293 8.45638,9.5568 11.897133,17.881859 14.359106,34.742522 0.490972,3.362391 0.643871,4.07093 1.053721,4.88283 0.752144,1.489986 2.348868,5.310128 2.815914,6.737037 1.461455,4.464962 1.689243,8.601741 0.735788,13.362575 -1.344688,6.714389 -6.406382,14.346183 -12.77687,19.264379 -4.46053,3.443653 -9.453724,5.406211 -16.736058,6.578052 -1.42888,0.229935 -10.362407,0.911706 -11.375276,0.868118 -0.267322,-0.01151 -1.032813,-0.07675 -1.701108,-0.144986 z m -1.29608,-2.318231 c 0,-2.016325 -0.576905,-7.033018 -1.403606,-12.20569 l -0.419308,-2.623558 -0.830154,-0.08469 C 50.143536,82.574272 48.822203,82.457668 47.663829,82.361733 37.793089,81.544251 30.11084,79.069627 23.281281,74.507572 20.685232,72.773447 19.044722,71.445574 17.06755,69.478025 11.328508,63.766893 8.4517897,57.683904 6.9375877,48.057602 l -0.273949,-1.741589 -0.7465433,2.025128 c -1.423591,3.861772 -1.9150398,6.253222 -1.9150398,9.318915 0,4.606147 1.3398351,8.168769 4.8849619,12.989146 5.2558275,7.146433 15.5432725,15.72798 25.1679515,20.994505 3.754215,2.054269 8.210908,3.830618 12.509392,4.985988 1.761488,0.473466 6.015584,1.417378 6.486312,1.439206 0.123632,0.0057 0.202513,-0.202311 0.202513,-0.53412 z m 31.385333,-7.370346 c 3.683051,-3.178724 7.009174,-7.5022 9.055137,-11.770392 1.816712,-3.789927 2.372388,-6.279505 2.386617,-10.692677 0.0093,-2.943239 -0.01203,-3.160266 -0.490131,-4.95016 -0.453678,-1.698355 -1.928543,-5.711356 -2.318885,-6.309553 -0.107848,-0.165265 -0.159682,0.430816 -0.162016,1.863118 -0.01037,6.202181 -1.734481,10.088193 -5.888228,13.26971 -1.466526,1.123264 -4.789549,3.111324 -7.201461,4.308403 -2.058678,1.021763 -1.999532,0.906355 -1.560208,3.044523 0.467668,2.276124 1.789593,6.050303 3.217861,9.187252 0.669684,1.470862 1.555769,2.99719 1.739957,2.99719 0.06803,0 0.617601,-0.426337 1.221357,-0.947414 z M 60.462644,80.594093 c 4.848591,-0.750197 9.025133,-1.748036 11.885756,-2.839692 1.955745,-0.746342 7.020529,-3.13953 9.175574,-4.335604 7.047878,-3.911642 9.304745,-6.736123 9.978422,-12.488098 0.322806,-2.756147 0.0978,-8.265161 -0.504216,-12.346539 C 89.616675,39.218598 88.25813,33.839695 85.862863,28.251872 81.791327,18.753515 72.85303,9.0139432 64.530094,5.0067335 62.820223,4.1834827 59.895601,3.0606352 59.895601,3.2274105 c 0,0.042909 0.392448,0.6086806 0.872105,1.2572717 1.627899,2.2012438 3.309664,4.8866347 4.281849,6.8371178 1.826254,3.664008 3.488584,8.780997 4.315772,13.284842 0.441689,2.404859 0.978687,6.535668 0.864482,6.649875 -0.04211,0.0421 -1.600779,0.257365 -3.463756,0.47839 -7.739455,0.918214 -10.724301,1.463401 -18.678705,3.411711 -2.707548,0.663172 -4.95367,1.205767 -4.991379,1.205767 -0.03775,0 -0.02956,-0.06302 0.01794,-0.140043 C 43.354051,35.823796 40.472603,26.017804 38.567478,20.7401 35.660881,12.688094 33.689247,8.4227086 31.855163,6.2188324 L 31.047483,5.248307 29.619536,5.9654646 C 23.118498,9.2304823 16.909455,15.80269 13.232907,23.31056 10.945425,27.981824 9.7101505,32.240266 8.3996445,39.972569 l -0.6083191,3.589273 0.4398947,2.997189 c 1.4911889,10.160177 3.9327409,15.676761 9.4479049,21.347091 3.260704,3.352436 6.658832,5.831144 10.936066,7.977132 5.345609,2.682015 10.72957,4.13833 18.238531,4.933368 3.292054,0.348559 10.700863,0.227411 13.60887,-0.222529 z M 56.439105,76.92829 c -1.232786,-0.664077 -2.344585,-1.207413 -2.470654,-1.207413 -0.12608,0 -0.22924,-0.03745 -0.22924,-0.08322 0,-0.04577 1.310776,-2.047382 2.91282,-4.448029 2.883324,-4.320611 2.917372,-4.363336 3.361716,-4.219055 0.246891,0.08017 1.466154,0.298288 2.709476,0.484715 1.243323,0.186427 2.285947,0.364322 2.316946,0.395321 0.07094,0.07098 -6.168514,10.296932 -6.278633,10.290108 -0.0446,-0.0028 -1.089645,-0.548356 -2.322431,-1.212433 z m -21.593724,0.626033 c -0.592638,-0.06029 -0.699335,-0.138105 -0.949254,-0.69233 -0.215249,-0.477356 -0.25692,-0.847399 -0.176939,-1.571302 0.05756,-0.520796 0.03028,-1.197239 -0.06057,-1.503207 -0.09085,-0.305967 -0.14508,-0.576393 -0.120532,-0.600945 0.02458,-0.02455 0.652095,-0.0953 1.394552,-0.157219 l 1.349916,-0.112579 -0.08577,-0.906576 c -0.04719,-0.49862 -0.16384,-1.107067 -0.259243,-1.352107 -0.152069,-0.390609 -0.259823,-0.445529 -0.874075,-0.445529 h -0.70061 l -0.639235,-1.311091 c -0.351576,-0.721101 -0.686796,-1.340487 -0.744926,-1.376415 -0.05808,-0.03593 -0.678157,-0.141538 -1.377834,-0.23469 -0.699677,-0.09315 -1.636662,-0.2913 -2.082189,-0.440332 -0.445526,-0.149033 -0.823578,-0.274981 -0.840099,-0.279885 -0.01649,-0.0049 -0.225175,-2.850826 -0.463655,-6.324267 -0.427159,-6.221471 -0.455399,-9.014724 -0.174813,-17.287568 0.02333,-0.686804 -0.184385,-0.604864 2.58684,-1.020646 0.965972,-0.144929 1.783702,-0.236115 1.817189,-0.202634 0.0335,0.03348 0.134087,0.705169 0.223557,1.492643 0.0895,0.787473 0.190234,1.459313 0.223899,1.49298 0.05683,0.0568 6.416141,-2.193396 6.586473,-2.330563 0.04221,-0.03401 -0.126432,-0.622664 -0.374775,-1.308138 -0.248354,-0.685475 -0.465158,-1.307761 -0.481793,-1.382859 -0.06793,-0.306569 5.561812,-2.434063 5.795148,-2.190012 0.0307,0.03213 0.543532,1.407145 1.139593,3.0556 1.154869,3.193895 4.582078,11.898265 6.634066,16.849066 l 1.242265,2.997191 -1.517189,1.478611 c -1.659821,1.617615 -2.161029,1.946233 -3.090557,2.026317 l -0.617021,0.05316 -2.039729,-4.878292 -2.039741,-4.87829 -0.945925,0.319443 -0.945925,0.319445 v 1.660475 c 0,0.913262 -0.04781,2.765638 -0.106302,4.11639 l -0.106303,2.455911 h 0.50238 0.50238 l 0.737998,2.258078 c 0.405888,1.241944 0.737987,2.440805 0.737987,2.664137 0,0.22333 -0.164037,0.587632 -0.364519,0.809558 -0.368749,0.408175 -1.6148,0.908573 -2.273812,0.913129 -0.19737,0.0012 -0.439335,0.05604 -0.537704,0.121507 -0.09832,0.06546 -0.229924,0.875651 -0.292357,1.800414 l -0.113531,1.681386 1.349283,-0.07082 c 1.032492,-0.05419 1.511578,-0.162037 2.040559,-0.459338 0.656399,-0.368915 0.713419,-0.375195 1.130228,-0.124443 0.781348,0.470074 1.038289,0.988385 1.220984,2.463012 0.195347,1.576703 0.158572,1.662961 -0.802733,1.883103 -1.309729,0.29993 -9.435461,0.69127 -11.015643,0.530523 z m 0.703691,-11.496571 c 0.36093,-0.09059 0.37015,-0.13562 0.272476,-1.331205 -0.108024,-1.322394 0.110347,-4.014126 0.525051,-6.471802 0.139956,-0.829467 0.222519,-1.540074 0.183472,-1.579127 -0.0391,-0.03906 -0.393215,0.03341 -0.787031,0.16105 -0.393806,0.12763 -1.247388,0.316741 -1.89686,0.420248 l -1.180837,0.188194 0.09085,0.915863 c 0.09323,0.940611 0.569781,7.479824 0.569781,7.818871 0,0.184748 1.280866,0.114405 2.223151,-0.122092 z m 1.62459,-15.625504 c 2.51724,-0.835851 4.576789,-1.59162 4.576789,-1.679482 0,-0.350942 -1.06375,-2.840836 -1.215072,-2.8441 -0.08909,-0.002 -1.966407,0.628127 -4.171772,1.40011 l -4.009746,1.403606 v 0.681673 c 0,0.37492 -0.04812,1.14207 -0.106945,1.704782 -0.08805,0.842892 -0.06669,1.008142 0.121516,0.938127 0.125645,-0.04674 2.288001,-0.768863 4.80523,-1.604716 z m 31.007042,20.200555 c -2.68693,-3.319243 -3.089406,-3.887813 -2.91646,-4.120078 0.353816,-0.475185 2.801581,-2.942617 2.919156,-2.942617 0.09925,0 5.683226,6.093772 6.273966,6.846739 0.20158,0.256943 0.06264,0.45032 -1.397052,1.944123 -0.891498,0.912339 -1.652768,1.763123 -1.691711,1.89063 -0.04211,0.137871 -1.334162,-1.328811 -3.187899,-3.618797 z m 6.781852,2.207724 c 0,-0.06939 0.150618,-1.144741 0.334692,-2.389652 0.488773,-3.305526 0.598156,-8.641338 0.243967,-11.900488 -0.650478,-5.985453 -2.364559,-13.083323 -4.343422,-17.985735 -0.83955,-2.079878 -2.597127,-5.718453 -3.300341,-6.832415 -0.288095,-0.456359 -0.339545,-0.646956 -0.189073,-0.700359 3.16668,-1.123883 6.561905,-2.657302 7.253887,-3.276144 0.04439,-0.0397 -0.122066,-0.219888 -0.369901,-0.400422 -0.297408,-0.216646 -0.401045,-0.39117 -0.304844,-0.513329 0.08017,-0.101801 0.346805,-0.804774 0.592524,-1.562172 0.24573,-0.757399 0.502795,-1.438516 0.571264,-1.513592 0.179563,-0.196898 7.28921,5.678574 7.281359,6.017374 -0.0093,0.401132 -0.587287,3.110338 -0.684255,3.207307 -0.04532,0.04527 -0.542754,-0.215283 -1.105514,-0.579012 -0.562759,-0.363728 -1.109091,-0.62836 -1.214087,-0.588071 -0.104985,0.04029 -0.8376,0.527365 -1.628013,1.082396 -2.565983,1.801829 -2.476098,1.718134 -2.35035,2.188335 0.111488,0.416833 0.133443,0.422521 1.728144,0.447557 1.582215,0.02484 1.642553,0.04007 2.951815,0.745103 l 1.336589,0.719747 v 2.813539 c 0,1.700335 -0.05984,2.776564 -0.151209,2.720091 -0.14566,-0.09003 -3.621374,-0.584203 -3.677211,-0.522829 -0.01504,0.01656 0.0447,0.444952 0.132831,0.951973 0.186055,1.070489 -0.18396,0.915917 3.594586,1.50163 1.414703,0.219293 2.617631,0.444252 2.673178,0.499913 0.05559,0.05566 0.100494,1.09747 0.09998,2.315134 -9.75e-4,2.106509 -0.02282,2.255502 -0.451293,3.070488 -0.280275,0.533113 -0.519937,0.813523 -0.634692,0.742601 -0.208104,-0.128616 -2.602095,-0.537881 -3.175361,-0.542846 -0.205749,-0.0018 -0.340945,0.05144 -0.300446,0.118269 0.04045,0.06683 0.269022,2.345099 0.507834,5.062821 0.238802,2.717722 0.483878,5.106925 0.544621,5.309337 0.104062,0.346791 0.243573,0.269523 2.417917,-1.33917 l 2.307477,-1.707196 -0.0021,-1.820028 c -0.0021,-2.692957 -0.293415,-7.85443 -0.573255,-10.163558 -0.29608,-2.443074 -0.983717,-5.924299 -1.773071,-8.976286 -0.320473,-1.239071 -0.524761,-2.306423 -0.453989,-2.371892 0.07083,-0.06547 0.684483,-0.373186 1.363781,-0.683818 L 85.451696,35.42034 86.125,38.032999 c 1.864554,7.235114 2.202854,9.52228 2.202854,14.893175 0,3.864526 0.0196,4.155734 0.260322,3.858431 0.24546,-0.303197 0.266233,-0.245811 0.363554,1.004324 0.184676,2.372172 0.142113,2.801056 -0.380863,3.837056 -0.449685,0.890812 -0.486222,1.093422 -0.488607,2.709051 l -0.0021,1.746232 -1.687708,0.931558 c -0.928242,0.512358 -1.725044,0.931559 -1.770655,0.931559 -0.04563,0 -0.105172,-0.329547 -0.132323,-0.732332 l -0.04937,-0.73233 -1.579601,1.151111 -1.579602,1.151112 -1.45e-4,1.079815 -1.45e-4,1.079814 -1.421081,0.693636 c -1.616408,0.789008 -4.896961,1.596457 -4.896961,1.205316 z M 56.39983,66.526796 c -0.227425,-0.512358 -0.560302,-1.365445 -0.73972,-1.895752 -0.179428,-0.530306 -0.429855,-1.164601 -0.556526,-1.409544 -0.506051,-0.978594 -0.355029,-1.152817 1.593353,-1.838104 0.42382,-0.149067 0.742084,-0.319502 0.707237,-0.378744 -0.03485,-0.05924 -0.479542,-1.08527 -0.988238,-2.280063 -0.928689,-2.181277 -1.816495,-4.166042 -2.3137,-5.172488 -0.278854,-0.564436 -0.429596,-0.588176 -1.740112,-0.274008 -0.960683,0.230303 -0.880962,0.331047 -2.176202,-2.74981 -0.674309,-1.603902 -1.285076,-3.007452 -1.357268,-3.119001 -0.0868,-0.134092 -0.0041,-0.252013 0.243012,-0.348004 1.595894,-0.619082 2.175341,-0.867917 2.296743,-0.986307 0.07841,-0.07651 -0.514358,-1.866046 -1.344274,-4.057982 -0.816547,-2.156613 -1.448533,-3.957206 -1.404425,-4.00132 0.218526,-0.218524 5.494671,-1.837396 5.603068,-1.719179 0.111436,0.121545 1.769348,4.228871 2.622008,6.495802 0.175964,0.467805 0.411063,0.850555 0.522447,0.850555 0.111384,0 0.88987,-0.279777 1.72997,-0.62173 l 1.527446,-0.621726 -0.03609,-0.876868 c -0.01981,-0.482275 -0.118789,-2.430413 -0.219906,-4.329193 -0.101117,-1.89878 -0.151146,-3.485021 -0.111187,-3.524978 0.119235,-0.11924 4.503258,-0.443323 4.606076,-0.3405 0.07011,0.07011 0.639349,4.181606 1.020264,7.369226 0.0093,0.07548 0.592846,-0.10504 1.843636,-0.570068 1.304833,-0.485116 1.338673,-0.46714 1.891529,1.004678 0.200823,0.534633 0.677773,1.800629 1.059891,2.813321 l 0.694751,1.841261 -1.76829,0.831908 c -1.67125,0.786256 -1.768333,0.858583 -1.769017,1.317941 -10e-4,0.720991 0.956431,9.032167 1.051533,9.127265 0.04491,0.04491 0.458749,-0.0054 0.919655,-0.111778 0.556983,-0.12857 0.871877,-0.138623 0.939029,-0.02998 0.206745,0.334537 0.85548,4.889212 0.714808,5.018598 -0.07923,0.07286 -0.982431,0.367113 -2.007155,0.653897 -3.530296,0.988012 -5.599065,1.753806 -8.933091,3.306758 -1.839062,0.856612 -3.425653,1.557476 -3.525764,1.557476 -0.10008,0 -0.368097,-0.419201 -0.595521,-0.931558 z m 7.516666,-7.815242 c 0.08473,-0.0029 -0.136606,-2.542208 -0.395611,-4.538041 -0.277226,-2.136361 -0.805098,-4.697097 -1.010629,-4.902621 -0.0784,-0.07841 -0.665495,0.06382 -1.336724,0.323836 -0.978262,0.378944 -1.187278,0.521365 -1.144135,0.779604 0.05538,0.331768 2.096656,8.272918 2.214024,8.613412 0.05217,0.151381 0.247576,0.142416 0.844663,-0.03875 0.427222,-0.129627 0.800006,-0.236474 0.828412,-0.23744 z M 89.44684,57.859246 c 0.0062,-8.337322 -0.605862,-13.862529 -2.352114,-19.289332 -0.789489,-2.657803 -1.941517,-4.874497 -3.026993,-7.00885 l -1.166692,-2.339961 -0.882828,0.103758 c -0.790185,0.09287 -0.934103,0.0606 -1.371622,-0.307546 l -0.488815,-0.411304 0.562531,-0.429056 c 0.407621,-0.321322 0.527353,-0.319591 0.881045,-0.651955 0.09012,-0.05567 0.24435,-0.251768 0.342833,-0.43577 0.100079,-0.187105 0.108801,-0.291139 0.0197,-0.236052 -0.255623,-0.732574 -0.502296,-0.981643 -0.77219,-1.381283 -0.01162,-0.60248 0.136098,-0.490849 0.762857,-0.892255 0.216939,-0.18607 0.441689,-0.378019 0.701875,-0.378019 2.410399,5.764315 4.969869,10.76439 6.488354,16.68329 1.356388,5.391099 1.849672,9.349161 1.971987,15.822937 l 0.0923,4.883482 -0.761322,0.98939 c -0.418728,0.544163 -0.816164,0.989388 -0.883202,0.989388 -0.067,0 -0.120054,-2.569887 -0.117835,-5.710862 z"
       id="path1178"
       sodipodi:nodetypes="sssscssssssssssssssssssscssssscsssssssssscsscssssssssssssssssssssscsscssscsssssssssssssssssssssscssscssssssssssssssssscsscccccsscccsssssscsssssssssssscsssssssscsssssssssssssssssssssssssssssscssssssssssssssccsssscsssssccssscccccssssssssssssscssssssscsssscssscssssssssssssssssssssscccsscccscccccscssss"
       inkscape:label="path1178" /></g></svg>
